<?xml version="1.0" standalone="no"?>
<!DOCTYPE svg PUBLIC "-//W3C//DTD SVG 20010904//EN"
 "http://www.w3.org/TR/2001/REC-SVG-20010904/DTD/svg10.dtd">
<svg version="1.0" xmlns="http://www.w3.org/2000/svg"
 width="1000.000000pt" height="1000.000000pt" viewBox="0 0 1000.000000 1000.000000"
 preserveAspectRatio="xMidYMid meet">
<metadata>
Created by potrace 1.14, written by Peter Selinger 2001-2017
</metadata>
<g transform="translate(0.000000,1000.000000) scale(0.100000,-0.100000)"
fill="#000000" stroke="none">
<path d="M5785 8363 c-150 -165 -333 -419 -415 -576 l-35 -67 -50 4 c-160 13
-318 -80 -460 -272 -33 -45 -60 -80 -61 -79 -1 1 -4 34 -7 72 -6 69 -20 130
-35 151 -4 5 -17 17 -30 26 -77 53 -196 -78 -224 -246 l-11 -65 -101 103
c-113 114 -157 153 -266 235 -146 109 -392 258 -522 315 -87 39 -90 34 -89
-159 2 -208 9 -324 36 -520 22 -167 85 -417 122 -489 14 -28 14 -31 -5 -45
-239 -184 -422 -378 -551 -585 -59 -94 -133 -243 -175 -351 -36 -94 -91 -290
-101 -360 -3 -23 -7 -50 -9 -62 -25 -126 -24 -440 0 -598 12 -75 16 -96 40
-195 62 -253 189 -520 350 -733 24 -31 44 -59 44 -60 0 -2 -31 -59 -70 -126
-38 -68 -70 -124 -70 -126 0 -2 -70 -133 -155 -291 -219 -406 -209 -385 -209
-476 1 -71 3 -82 35 -128 49 -73 136 -115 235 -114 116 1 169 42 251 194 22
41 35 54 54 56 23 1 46 3 274 25 61 5 115 11 121 13 5 2 20 -17 31 -43 12 -25
31 -56 43 -69 12 -13 20 -25 19 -27 -2 -2 -29 -4 -59 -6 -226 -10 -432 -186
-486 -415 -17 -73 -14 -191 7 -269 47 -173 192 -318 369 -369 72 -21 135 -25
245 -15 50 5 119 11 155 14 79 7 133 12 265 24 55 6 134 13 175 16 41 3 86 8
100 10 14 2 68 7 120 10 52 3 102 8 110 10 8 2 57 7 108 10 52 4 101 8 110 10
10 1 62 6 117 10 55 4 102 8 105 10 3 1 51 6 107 9 56 4 110 8 120 10 10 2 61
7 113 11 52 4 102 8 110 10 8 1 56 6 105 9 50 4 101 9 115 11 14 2 66 6 115
10 50 3 101 8 115 10 14 2 61 6 105 10 101 8 156 20 214 47 102 46 182 118
244 220 67 111 87 215 67 355 -29 204 -176 375 -372 434 l-69 21 27 26 c14 15
38 51 54 81 l27 54 6 -43 c7 -51 31 -87 78 -115 26 -16 52 -20 114 -20 111 0
185 24 239 79 40 39 45 41 62 28 26 -20 102 -54 141 -62 44 -10 130 7 179 35
42 25 73 65 118 152 28 57 34 60 121 69 33 3 76 7 95 9 19 2 69 6 110 10 41 3
90 8 108 11 31 4 34 1 53 -41 23 -52 74 -107 122 -131 53 -28 154 -30 213 -5
94 41 155 127 160 225 2 51 -9 87 -96 336 -39 113 -89 255 -110 315 -81 235
-91 261 -118 305 -112 182 -472 175 -645 -13 -43 -47 -84 -115 -177 -292 -34
-66 -70 -133 -80 -150 -9 -16 -39 -70 -65 -120 -26 -49 -50 -92 -52 -95 -5 -5
5 145 12 170 2 8 6 46 10 83 3 37 8 78 10 90 15 77 3 184 -26 232 -53 89 -136
130 -261 130 -48 0 -88 0 -88 1 0 0 20 54 44 120 79 214 111 378 107 557 -4
252 -97 459 -270 600 -19 16 -30 32 -25 36 11 10 157 55 234 72 125 28 147
136 41 202 -22 13 -29 22 -20 25 67 18 134 73 155 128 16 42 16 48 1 79 -9 20
-40 50 -75 74 -116 78 -216 206 -285 363 -55 125 -156 277 -248 376 -123 130
-139 173 -145 386 -2 88 -6 167 -9 176 -4 15 -8 38 -20 123 -12 90 -36 194
-77 337 -16 58 -31 112 -33 120 -5 22 -84 238 -106 290 -52 122 -62 124 -144
33z m-2406 -1940 c-104 -125 -229 -301 -302 -425 -57 -97 -77 -113 -26 -21 83
151 136 233 217 333 48 60 192 220 198 220 2 0 -37 -48 -87 -107z m-368 -546
c-10 -9 -11 -8 -5 6 3 10 9 15 12 12 3 -3 0 -11 -7 -18z m4687 -2243 c-6 -5
-68 -12 -68 -8 0 3 10 24 21 47 l22 42 14 -39 c7 -22 12 -40 11 -42z m-4131
-358 c6 -19 8 -37 5 -40 -6 -7 -62 -8 -62 -1 0 11 34 75 40 75 4 0 11 -15 17
-34z m2320 -294 c2 -15 13 -40 24 -55 12 -16 19 -30 17 -32 -1 -2 -30 -6 -62
-10 l-59 -8 20 29 c12 16 26 48 33 72 14 46 22 47 27 4z"/>
<path d="M2787 3874 c-1 -1 -36 -5 -77 -8 -41 -4 -93 -9 -115 -11 -22 -3 -67
-7 -100 -10 -131 -11 -191 -17 -211 -20 -12 -2 -61 -6 -110 -10 -49 -4 -100
-8 -114 -11 -14 -2 -59 -6 -100 -10 -106 -7 -157 -21 -201 -52 -48 -34 -69
-71 -84 -142 -25 -120 4 -192 88 -220 37 -11 89 -10 246 6 48 6 53 4 48 -12
-3 -11 -8 -48 -12 -84 -3 -36 -7 -76 -10 -90 -2 -14 -6 -52 -9 -85 -3 -33 -8
-76 -11 -95 -2 -19 -7 -60 -10 -90 -3 -30 -7 -68 -9 -85 -30 -214 -22 -280 39
-334 83 -73 289 -55 379 33 35 34 73 105 80 151 9 58 16 110 21 165 3 30 8 71
10 90 3 19 7 60 10 90 5 53 11 105 20 180 3 19 7 58 10 85 11 91 17 130 20
134 2 2 17 5 32 6 15 2 60 6 98 9 125 12 146 16 184 36 76 38 117 108 123 205
7 126 -56 189 -181 184 -28 -2 -52 -3 -54 -5z"/>
</g>
</svg>
